Robin.Hood.Unrated.DC.2010.BluRay.1080p.DTS.x264-CHD

RELEASE DATE....: 09/08/2010
THEATRE DATE....: 2010
iMDB URL........: http://www.imdb.com/title/tt0955308 [User Rating:7.0/10]
iMDB RATiNG.....: 7.0/10 (29,191 votes)
GENRE...........: Action/Crime/Drama
SOURCE..........: Robin Hood 2010 Unrated DC Theatrical 2in1 BluRay 1080P AVC DTS-HD MA5.1-CHDBits
ViDEO BiTRATE...: x264 @ 12300 Kbps
FRAME RATE......: 23.976 fps
AUDiO 1.........: ENG DTS-CORE 5.1CH 1536k
RUNTiME.........: 02:35:48 (h:m:s)
ASPECT RATiO....: 2.400: 1
RESOLUTiON......: 1920 X 800
SUBTiTLES.......: N/A
FilE SiZE.......: 15G
Encoder.........: chp@CHD

x264 [info]: frame I:1881 Avg QP:18.91 size:279153
x264 [info]: frame P:51434 Avg QP:19.91 size: 98068
x264 [info]: frame B:170829 Avg QP:21.87 size: 51457



General

Format                           : Matroska
File size                        : 15.0 GiB
Duration                         : 2h 35mn
Overall bit rate                 : 13.8 Mbps
Encoded date                     : UTC 2010-09-08 04:57:03
Writing application              : mkvmerge v3.2.0 ('Beginnings') 编译于 Feb 12 2010 16:46:17
Writing library                  : libebml v0.7.9 + libmatroska v0.8.1

Video
ID                               : 1
Format                           : AVC
Format/Info                      : Advanced Video Codec
Format profile                   : High@L4.1
Format settings, CABAC           : Yes
Format settings, ReFrames        : 5 frames
Muxing mode                      : Container profile=Unknown@4.1
Codec ID                         : V_MPEG4/ISO/AVC
Duration                         : 2h 35mn
Bit rate                         : 12.3 Mbps
Width                            : 1 920 pixels
Height                           : 800 pixels
Display aspect ratio             : 2.40:1
Frame rate                       : 23.976 fps
Color space                      : YUV
Chroma subsampling               : 4:2:0
Bit depth                        : 8 bits
Scan type                        : Progressive
Bits/(Pixel*Frame)               : 0.334
Stream size                      : 13.1 GiB (87%)
Title                            : Robin.Hood.Unrated.DC.2010
Writing library                  : x264 core 102 r1666 d058f37
Encoding settings                : cabac=1 / ref=5 
/ deblock=1:-3:-3
 / analyse=0x3:0x113 / me=umh / subme=10 / psy=1 
/ psy_rd=1.05:0.10 / mixed_ref=1 / me_range=48 
/ chroma_me=1 / trellis=2 / 8x8dct=1 / cqm=2
 / deadzone=21,11 / fast_pskip=0 / chroma_qp_offset=-2
 / threads=12 / sliced_threads=0 / nr=0 / decimate=1
 / interlaced=0 / constrained_intra=0 / bframes=6
 / b_pyramid=2 / b_adapt=2 / b_bias=0 / direct=3 
/ weightb=1 / open_gop=0 / weightp=2 / keyint=250
 / keyint_min=25 / scenecut=40 / intra_refresh=0 
/ rc_lookahead=60 / rc=2pass / mbtree=1 / bitrate=12300
 / ratetol=2.0 / qcomp=0.70 / qpmin=10 / qpmax=51
 / qpstep=4 / cplxblur=20.0 / qblur=0.5 / vbv_maxrate=50000
 / vbv_bufsize=50000 / ip_ratio=1.40 / aq=1:0.90
 / nal_hrd=none

Language                         : English

Audio
ID                               : 2
Format                           : DTS
Format/Info                      : Digital Theater Systems
Codec ID                         : A_DTS
Duration                         : 2h 35mn
Bit rate mode                    : Constant
Bit rate                         : 1 510 Kbps
Channel(s)                       : 6 channels
Channel positions                : Front: L C R, Side: L R, LFE
Sampling rate                    : 48.0 KHz
Bit depth                        : 24 bits
Stream size                      : 1.64 GiB (11%)
Title                            : DTS-HD MA CORE 1536K
Language                         : English